<svg width="31" height="17" viewBox="0 0 31 17" fill="none" xmlns="http://www.w3.org/2000/svg">
<path d="M27.3253 15.8398C27.6971 16.1664 28.1889 16.3441 28.6969 16.3357C29.205 16.3272 29.6898 16.1332 30.0491 15.7945C30.4084 15.4557 30.6143 14.9987 30.6232 14.5198C30.6322 14.0408 30.4436 13.5772 30.0972 13.2268L17.0225 0.901301C16.8404 0.729496 16.6241 0.593207 16.3861 0.500221C16.1481 0.407235 15.893 0.359375 15.6353 0.359375C15.3776 0.359375 15.1225 0.407235 14.8845 0.500221C14.6465 0.593207 14.4302 0.729496 14.2481 0.901301L1.17343 13.2268C0.816356 13.5756 0.618908 14.0427 0.623618 14.5275C0.628327 15.0122 0.834816 15.4759 1.19861 15.8185C1.56241 16.1611 2.0544 16.3553 2.56862 16.3593C3.08285 16.3633 3.57816 16.1767 3.94787 15.8398L15.6366 4.8208L27.3253 15.8398Z" fill="white"/>
</svg>
