<svg width="20" height="20" viewBox="0 0 20 20" fill="none" xmlns="http://www.w3.org/2000/svg">
<path d="M6.61623 2.04494C6.38189 2.27935 6.25024 2.59723 6.25024 2.92869C6.25024 3.26014 6.38189 3.57803 6.61623 3.81244L12.8037 9.99994L6.61623 16.1874C6.38853 16.4232 6.26254 16.7389 6.26538 17.0667C6.26823 17.3944 6.39969 17.708 6.63145 17.9397C6.86321 18.1715 7.17673 18.3029 7.50448 18.3058C7.83222 18.3086 8.14797 18.1826 8.38373 17.9549L15.455 10.8837C15.6893 10.6493 15.821 10.3314 15.821 9.99994C15.821 9.66848 15.6893 9.3506 15.455 9.11619L8.38373 2.04494C8.14932 1.8106 7.83143 1.67896 7.49998 1.67896C7.16852 1.67896 6.85064 1.8106 6.61623 2.04494Z" fill="#6654D3"/>
</svg>
