<svg width="25" height="30" viewBox="0 0 25 30" fill="none" xmlns="http://www.w3.org/2000/svg">
<path d="M10.5293 16.9045C10.4847 17.0217 10.4261 17.1229 10.3535 17.2074C10.2816 17.2933 10.1937 17.3599 10.0898 17.4078C9.98595 17.4558 9.85878 17.4791 9.7103 17.4791C9.50189 17.4791 9.32945 17.4338 9.19096 17.3439C9.05246 17.2527 8.94194 17.1335 8.85937 16.9837C8.77681 16.8352 8.71689 16.6661 8.6796 16.4803C8.64165 16.2946 8.62367 16.1048 8.62367 15.9131C8.62367 15.7206 8.64165 15.5322 8.6796 15.3451C8.71689 15.158 8.77681 14.9902 8.85937 14.8418C8.94194 14.6919 9.05246 14.5728 9.19096 14.4815C9.32945 14.3903 9.50256 14.3464 9.7103 14.3464C9.89073 14.3464 10.0392 14.3803 10.1537 14.4489C10.2683 14.5188 10.3601 14.5987 10.4294 14.6893C10.4986 14.7805 10.5466 14.8711 10.5732 14.9649C10.5998 15.0575 10.6185 15.1314 10.6291 15.1847H12.339C12.2644 14.4656 12.0127 13.9103 11.5833 13.5188C11.1545 13.1273 10.5459 12.9282 9.75824 12.9229C9.31613 12.9229 8.9173 12.9941 8.56375 13.1386C8.20953 13.2817 7.90592 13.4848 7.6529 13.7458C7.39989 14.0068 7.20547 14.3204 7.06964 14.6886C6.93381 15.0555 6.86523 15.4643 6.86523 15.9111C6.86523 16.3312 6.92982 16.7254 7.05699 17.0896C7.18483 17.4551 7.37326 17.7694 7.62094 18.0364C7.86863 18.3034 8.17025 18.5138 8.52713 18.6682C8.88401 18.8214 9.29416 18.8999 9.75824 18.8999C10.1737 18.8999 10.5439 18.83 10.8688 18.6922C11.1931 18.5531 11.4661 18.3713 11.6871 18.1449C11.9082 17.9185 12.076 17.6635 12.1905 17.3819C12.305 17.1009 12.3629 16.8146 12.3629 16.5276H10.6365C10.6105 16.6608 10.5752 16.788 10.5293 16.9045Z" fill="white"/>
<path d="M15.2304 16.5207H15.2144L14.2796 13.061H12.5059L14.2077 18.7658H16.1732L17.9556 13.061H16.1492L15.2304 16.5207Z" fill="white"/>
<path d="M19.7659 0H0.955078V30H24.0585V4.16206L19.7659 0ZM22.061 28.0019H2.95255V1.99747H18.7366V5.16679H22.0603L22.061 28.0019Z" fill="white"/>
</svg>
