<svg width="35" height="51" viewBox="0 0 35 51" fill="none" xmlns="http://www.w3.org/2000/svg">
<path d="M17.1315 13V18M30.3927 35.5277L31.5859 17.5345C31.6033 17.2716 31.612 17.1401 31.6178 17.0161C31.806 12.9678 30.0302 9.07909 26.8537 6.58354C26.7565 6.50707 26.6515 6.42802 26.4419 6.26992C26.101 6.01277 25.9304 5.88419 25.7739 5.77239C20.5988 2.07587 13.6638 2.07587 8.48884 5.77239C8.33235 5.88419 8.16182 6.01277 7.82075 6.26992C7.61106 6.42802 7.50619 6.50707 7.40886 6.58354C4.2325 9.07909 2.45675 12.9678 2.64493 17.0161C2.6507 17.1401 2.65941 17.2716 2.67684 17.5345L3.87007 35.5277C4.33551 42.5462 10.1343 48 17.1315 48C24.1284 48 29.9272 42.5462 30.3927 35.5277Z" stroke="url(#paint0_linear_259_10)" stroke-width="5" stroke-linecap="round"/>
<defs>
<linearGradient id="paint0_linear_259_10" x1="17.1313" y1="3" x2="17.1313" y2="48" gradientUnits="userSpaceOnUse">
<stop stop-color="#4386F8"/>
<stop offset="1" stop-color="#A84EF5"/>
</linearGradient>
</defs>
</svg>
